HIERARCHY
ROOT Hips
{
	OFFSET 0.000000 0.000000 0.000000
	CHANNELS 6 Xposition Yposition Zposition Zrotation Yrotation Xrotation 
	JOINT LeftUpLeg_virtual
	{
		OFFSET 0.000000 0.000000 0.000000
		CHANNELS 3 Zrotation Yrotation Xrotation
		JOINT LeftUpLeg
		{
			OFFSET 8.479694 -4.795517 -0.379053
			CHANNELS 3 Zrotation Yrotation Xrotation
			JOINT LeftLeg
			{
				OFFSET 0.485052 -32.551468 0.112863
				CHANNELS 3 Zrotation Yrotation Xrotation
				JOINT LeftFoot
				{
					OFFSET 0.438033 -32.635670 -3.012641
					CHANNELS 3 Zrotation Yrotation Xrotation
					JOINT LeftToeBase
					{
						OFFSET 0.970169 -13.225353 11.864223
						CHANNELS 3 Zrotation Yrotation Xrotation
						End Site
						{
							OFFSET 0.000000 0.000000 0.000000
						}
					}
				}
			}
		}
	}
	JOINT RightUpLeg_virtual
	{
		OFFSET 0.000000 0.000000 0.000000
		CHANNELS 3 Zrotation Yrotation Xrotation
		JOINT RightUpLeg
		{
			OFFSET -8.479694 -4.795517 -0.379053
			CHANNELS 3 Zrotation Yrotation Xrotation
			JOINT RightLeg
			{
				OFFSET -0.484100 -32.551483 0.112903
				CHANNELS 3 Zrotation Yrotation Xrotation
				JOINT RightFoot
				{
					OFFSET -0.438985 -32.635651 -3.012681
					CHANNELS 3 Zrotation Yrotation Xrotation
					JOINT RightToeBase
					{
						OFFSET -0.970169 -13.225354 11.864223
						CHANNELS 3 Zrotation Yrotation Xrotation
						End Site
						{
							OFFSET 0.000000 0.000000 0.000000
						}
					}
				}
			}
		}
	}
	JOINT Spine_virtual
	{
		OFFSET 0.000000 0.000000 0.000000
		CHANNELS 3 Zrotation Yrotation Xrotation
		JOINT Spine
		{
			OFFSET 0.000000 7.722015 1.166203
			CHANNELS 3 Zrotation Yrotation Xrotation
			JOINT Spine1
			{
				OFFSET 0.000000 12.024086 0.248766
				CHANNELS 3 Zrotation Yrotation Xrotation
				JOINT Spine2
				{
					OFFSET -0.000000 11.503036 -0.491240
					CHANNELS 3 Zrotation Yrotation Xrotation
					JOINT Neck_virtual
					{
						OFFSET 0.000000 0.000000 0.000000
						CHANNELS 3 Zrotation Yrotation Xrotation
						JOINT Neck
						{
							OFFSET 0.000000 18.430687 -3.123054
							CHANNELS 3 Zrotation Yrotation Xrotation
							JOINT Head
							{
								OFFSET -0.000000 9.051071 1.034021
								CHANNELS 3 Zrotation Yrotation Xrotation
								End Site
								{
									OFFSET 0.000000 0.000000 0.000000
								}
							}
						}
					}
					JOINT LeftShoulder_virtual
					{
						OFFSET 0.000000 0.000000 0.000000
						CHANNELS 3 Zrotation Yrotation Xrotation
						JOINT LeftShoulder
						{
							OFFSET 6.197824 13.665230 -4.064723
							CHANNELS 3 Zrotation Yrotation Xrotation
							JOINT LeftArm
							{
								OFFSET 7.778132 -0.187073 -1.709282
								CHANNELS 3 Zrotation Yrotation Xrotation
								JOINT LeftForeArm
								{
									OFFSET 21.954697 0.000000 -2.041093
									CHANNELS 3 Zrotation Yrotation Xrotation
									JOINT LeftHand
									{
										OFFSET 22.992908 0.000000 -0.870901
										CHANNELS 3 Zrotation Yrotation Xrotation
										End Site
										{
											OFFSET 0.000000 0.000000 0.000000
										}
									}
								}
							}
						}
					}
					JOINT RightShoulder_virtual
					{
						OFFSET 0.000000 0.000000 0.000000
						CHANNELS 3 Zrotation Yrotation Xrotation
						JOINT RightShoulder
						{
							OFFSET -6.197824 13.665230 -4.064723
							CHANNELS 3 Zrotation Yrotation Xrotation
							JOINT RightArm
							{
								OFFSET -7.778132 -0.187073 -1.709282
								CHANNELS 3 Zrotation Yrotation Xrotation
								JOINT RightForeArm
								{
									OFFSET -21.954697 0.000000 -2.041093
									CHANNELS 3 Zrotation Yrotation Xrotation
									JOINT RightHand
									{
										OFFSET -22.992908 0.000000 -0.870901
										CHANNELS 3 Zrotation Yrotation Xrotation
										End Site
										{
											OFFSET 0.000000 0.000000 0.000000
										}
									}
								}
							}
						}
					}
				}
			}
		}
	}
}
MOTION
Frames: 10
Frame Time: 0.033333
1.054507 79.124725 32.273643 179.786780 -1.792359 -179.848935 -0.676604 -2.679747 10.250267 -7.067919 -0.446770 -24.167632 11.063554 -0.275868 32.589715 -3.342979 -10.842908 -16.576932 0.000000 0.000000 0.000000 1.005359 -1.561449 11.913693 -11.478693 -4.619420 -27.911910 -2.448262 -0.900831 47.247782 11.848663 8.082802 -9.214704 0.000000 0.000000 0.000000 7.116951 1.065300 -4.977484 -0.096577 1.982030 -4.379384 -1.539986 -3.185612 9.412572 0.027031 0.136521 0.105074 -1.587579 -2.447184 9.702217 -7.579263 2.275971 -11.303575 0.000000 0.000000 0.000000 -0.065467 -1.674219 6.606095 1.442329 8.756200 -1.525185 9.449532 -9.432406 -45.461647 -6.254148 -55.134578 1.925747 0.000000 0.000000 0.000000 -4.248891 0.075044 6.117920 25.987461 9.566582 7.160003 16.654972 -16.787990 46.175712 -144.241055 87.880124 -142.144665 0.000000 0.000000 0.000000 
1.189935 79.145119 32.372253 179.792285 -1.618751 -179.855628 -0.691744 -2.778388 10.459047 -6.951595 -0.447081 -24.376303 11.046549 -0.264184 32.484373 -3.416796 -10.729570 -16.455831 0.000000 0.000000 0.000000 1.019502 -1.616240 11.997760 -11.402644 -4.575712 -28.207020 -2.472599 -0.965035 47.371863 11.792154 8.110284 -9.207512 0.000000 0.000000 0.000000 7.067616 0.988378 -4.602571 -0.197145 1.909411 -4.381508 -1.496209 -3.216385 9.338498 0.030519 0.095901 -0.000821 -1.606644 -2.380842 9.818954 -7.576508 2.304835 -11.421657 0.000000 0.000000 0.000000 -0.088149 -1.584116 6.707929 1.322369 8.736639 -1.551854 9.346877 -9.514024 -45.109913 -6.228621 -55.199178 2.090118 0.000000 0.000000 0.000000 -4.208073 0.137354 6.232613 25.919528 9.609686 7.113058 16.528404 -16.840511 46.444368 -142.870113 87.911187 -140.757440 0.000000 0.000000 0.000000 
1.341885 79.169342 32.464802 179.767232 -1.529599 -179.874507 -0.696387 -2.919236 10.697207 -6.825718 -0.456212 -24.637008 11.036581 -0.254809 32.433256 -3.492979 -10.657993 -16.316740 0.000000 0.000000 0.000000 1.029364 -1.760441 12.092800 -11.384709 -4.528239 -28.584938 -2.466249 -0.971683 47.640105 11.579439 8.088922 -9.189388 0.000000 0.000000 0.000000 7.002801 0.918712 -4.206589 -0.301449 1.859917 -4.372610 -1.516462 -3.207162 9.286895 0.003807 0.094910 0.024325 -1.534225 -2.417348 9.795772 -7.531525 2.324803 -11.542046 0.000000 0.000000 0.000000 0.010603 -1.527604 6.708822 1.305223 8.755894 -1.454377 9.278730 -9.719223 -44.784065 -6.281616 -55.369304 2.338952 0.000000 0.000000 0.000000 -4.131233 0.111550 6.297904 25.845530 9.605329 7.044600 16.437310 -16.838336 46.646190 -146.837319 87.956560 -144.720507 0.000000 0.000000 0.000000 
1.507216 79.201591 32.560951 179.741919 -1.470710 -179.890749 -0.816523 -2.999035 10.901491 -6.559867 -0.458456 -24.913067 10.944988 -0.391937 32.431108 -3.532918 -10.566175 -16.182902 0.000000 0.000000 0.000000 1.084255 -1.930716 12.159860 -11.393453 -4.453067 -28.978570 -2.435885 -0.963993 47.960922 11.317011 8.087931 -9.172597 0.000000 0.000000 0.000000 6.867834 0.868433 -3.831885 -0.415213 1.855273 -4.312431 -1.488579 -3.164543 9.207749 0.041699 0.112152 -0.010147 -1.515157 -2.313002 9.738442 -7.418184 2.416786 -11.740108 0.000000 0.000000 0.000000 -0.026291 -1.496930 6.696603 1.312500 8.794038 -1.563615 9.105884 -9.917084 -44.467861 -6.267566 -55.627089 2.580446 0.000000 0.000000 0.000000 -4.130661 0.114089 6.296012 25.831219 9.826057 7.126727 16.379741 -16.782784 46.867010 -138.839373 87.889092 -136.759006 0.000000 0.000000 0.000000 
1.658780 79.240700 32.675682 179.709913 -1.527773 -179.909191 -0.851812 -3.083248 11.022826 -6.368452 -0.404679 -25.172935 10.807413 -0.454168 32.456574 -3.661438 -10.597228 -15.989031 0.000000 0.000000 0.000000 1.180036 -2.075834 12.210554 -11.456767 -4.337016 -29.301389 -2.424402 -0.960658 48.220193 11.116192 8.139862 -9.185791 0.000000 0.000000 0.000000 6.776073 0.837735 -3.470751 -0.542257 1.779125 -4.204026 -1.493503 -3.160707 9.132455 0.055817 0.128218 -0.020048 -1.522044 -2.255921 9.723570 -7.310981 2.426020 -11.922607 0.000000 0.000000 0.000000 -0.018740 -1.457277 6.648064 1.391213 8.819262 -1.535092 8.791248 -9.933084 -44.339184 -6.271241 -55.815859 2.822244 0.000000 0.000000 0.000000 -4.137974 0.250757 6.284428 25.732145 9.901362 6.975859 16.522016 -16.683912 46.947838 -139.170828 88.053078 -137.175306 0.000000 0.000000 0.000000 
1.753527 79.288811 32.847916 179.668604 -1.609888 -179.926731 -0.837360 -3.079871 11.059942 -6.236539 -0.293825 -25.398173 10.606405 -0.477449 32.403647 -3.826502 -10.685756 -15.742167 0.000000 0.000000 0.000000 1.309341 -2.101124 12.275455 -11.589392 -4.215326 -29.542860 -2.394460 -0.972956 48.279626 10.987951 8.232210 -9.161700 0.000000 0.000000 0.000000 6.700942 0.940747 -3.106643 -0.693236 1.776448 -4.065927 -1.506166 -3.108033 9.054281 0.046192 0.136885 0.021736 -1.535677 -1.943681 9.647627 -7.321140 2.476812 -12.099893 0.000000 0.000000 0.000000 0.037235 -1.455121 6.644385 1.380752 8.792689 -1.556417 8.528266 -10.003497 -44.467571 -5.962534 -55.804619 2.740200 0.000000 0.000000 0.000000 -4.179135 0.240198 6.189647 25.727552 9.985857 7.071192 16.918331 -16.488428 46.892145 -133.832776 88.004529 -131.987395 0.000000 0.000000 0.000000 
1.785088 79.336243 33.038452 179.654835 -1.686804 -179.960567 -0.771252 -2.909686 11.059489 -6.172827 -0.164725 -25.636195 10.345391 -0.449381 32.459562 -4.016416 -10.828293 -15.450299 0.000000 0.000000 0.000000 1.477756 -1.970799 12.401523 -11.765685 -4.105841 -29.678002 -2.361102 -0.995627 48.127128 10.954712 8.337345 -9.072246 0.000000 0.000000 0.000000 6.726306 1.076254 -2.708620 -0.853948 1.699892 -3.891034 -1.562665 -3.090729 8.963125 0.067427 0.132167 -0.014639 -1.587054 -2.229091 9.580192 -7.151127 2.550393 -12.517588 0.000000 0.000000 0.000000 -0.082826 -1.436961 6.616067 1.535261 8.766530 -1.543128 8.039270 -9.959972 -44.553525 -5.801420 -55.507844 2.879935 0.000000 0.000000 0.000000 -4.180245 0.252446 6.173215 25.633546 10.168652 7.013974 17.576828 -16.691526 47.002876 -133.738150 88.081737 -132.077800 0.000000 0.000000 0.000000 
1.771946 79.382256 33.225262 179.643278 -1.630810 -179.957029 -0.672771 -2.622772 11.086272 -6.202328 -0.020191 -25.796188 10.063542 -0.367443 32.402728 -4.149511 -10.953574 -15.146096 0.000000 0.000000 0.000000 1.639033 -1.705480 12.528900 -11.975553 -4.053894 -29.722989 -2.331115 -1.026999 47.786845 11.041761 8.451451 -8.936783 0.000000 0.000000 0.000000 6.733459 1.275052 -2.351209 -1.011600 1.577904 -3.704713 -1.653097 -3.110506 8.869165 0.016713 0.095695 -0.006624 -1.589783 -2.095187 9.512176 -7.141423 2.574243 -12.914958 0.000000 0.000000 0.000000 -0.015041 -1.358073 6.530308 1.645617 8.715868 -1.556055 7.586651 -9.830000 -44.638544 -5.599680 -54.867688 3.001894 0.000000 0.000000 0.000000 -4.262226 0.367887 6.164864 25.591870 10.301942 7.096952 18.290782 -16.838100 47.217245 -130.375880 87.936732 -128.951909 0.000000 0.000000 0.000000 
1.727429 79.425156 33.366261 179.639139 -1.411931 -179.948464 -0.638470 -2.332102 11.078045 -6.237214 0.108377 -25.932611 9.917126 -0.368032 32.353766 -4.163601 -10.994992 -14.903633 0.000000 0.000000 0.000000 1.768128 -1.438593 12.604154 -12.163250 -4.100457 -29.671414 -2.296626 -1.052624 47.351950 11.261906 8.595303 -8.802381 0.000000 0.000000 0.000000 6.762846 1.546954 -2.071178 -1.108935 1.452425 -3.449917 -1.710247 -3.083069 8.762756 0.048484 0.118028 -0.009186 -1.663465 -2.193182 9.422772 -7.063411 2.632246 -13.398645 0.000000 0.000000 0.000000 -0.171649 -1.391223 6.514494 1.708933 8.527880 -1.570170 7.233227 -9.621546 -44.697263 -4.920951 -53.659318 2.715882 0.000000 0.000000 0.000000 -4.394569 0.281087 6.059524 25.375169 10.490005 7.043504 19.261405 -17.503709 47.419606 -130.267567 88.006885 -129.113211 0.000000 0.000000 0.000000 
1.695826 79.454018 33.451973 179.632964 -1.012967 -179.987315 -0.670223 -2.175511 11.087624 -6.294497 0.251915 -25.963909 9.942874 -0.416257 32.243049 -4.047736 -10.934065 -14.731635 0.000000 0.000000 0.000000 1.835577 -1.304433 12.560191 -12.302877 -4.190829 -29.523264 -2.275456 -1.041594 46.955488 11.554940 8.738463 -8.657440 0.000000 0.000000 0.000000 6.781102 1.670315 -1.948078 -1.177761 1.392043 -3.091238 -1.794359 -3.032249 8.696102 0.029013 0.125352 -0.008732 -1.809160 -2.198585 9.344993 -7.084665 2.649367 -13.927963 0.000000 0.000000 0.000000 -0.303016 -1.339237 6.424195 1.904568 8.348020 -1.496813 6.832165 -9.370005 -44.648038 -4.306348 -51.969431 2.546222 0.000000 0.000000 0.000000 -4.441252 0.368511 5.927518 25.123621 10.693176 7.009235 20.173746 -18.081635 47.509242 -125.524014 87.882152 -124.655597 0.000000 0.000000 0.000000 
